# xmcd
#
# Track frame offsets: 
#        150
#        23072
#        42929
#        62633
#        81731
#        104361
#        131038
#        150902
#        174953
#
# Disc length: 2744 seconds
#
# Revision: 0
# Processed by: cddbd v1.5.2PL0 Copyright (c) Steve Scherf et al.
# Submitted via: ExactAudioCopy v1.3
#
DISCID=6c0ab609
DTITLE=Seth Yacovone Band - Welcome
DYEAR=2018
DGENRE=Blues Rock
TTITLE0=Welcome
TTITLE1=The Weary Oar
TTITLE2=Dream Another Dream To Dream
TTITLE3=Doing What I Was Born To Do
TTITLE4=Be Yourself
TTITLE5=Can The Call Go Through
TTITLE6=We're Letting The Rivers Run Dry
TTITLE7=A Chance I Still See
TTITLE8=Sleaze
EXTD=
EXTT0=
EXTT1=
EXTT2=
EXTT3=
EXTT4=
EXTT5=
EXTT6=
EXTT7=
EXTT8=
PLAYORDER=
